:SAMPLES-PER-SECOND 30
:FULLY-SPECIFIED
:DEGREES
386
root  -5.98012 40.8908 0.817078 176.041 -74.0264 -175.687
RightUpLeg  1.95639 -0.264148 -1.38799
RightLeg  -1.66864 -7.57067 -0.358474
RightFoot  0.856376 -0.419272 3.97625
RightToes  -3.11842e-008 1.75238e-005 3.56266e-009
Spine  2.51979 -4.74734 -5.22711
Spine1  -5.59998 -5.99463 9.54066
HEad  -14.8917 11.8796 -1.66651
LeftShoulder1  2.63574 -6.29182 -20.4911
LeftArm  -33.149 -4.17093 -39.2318
LeftForeArm  155.34 -66.4691 -155.873
LeftHand  -0.805412 -4.82464 9.43625
RightShoulder  1.84982 3.74525 19.0878
RightArm  -42.3204 -6.97777 19.0793
RightForeArm  105.195 67.5897 148.999
RightHand  -0.870447 8.57681 -7.60403
LeftUpLeg  7.64557 1.95258 1.95289
LeftLeg  -4.32564 28.8694 -2.32261
LeftFoot  -1.87422 0.240038 -2.76352
LeftToes  4.78904e-008 1.4679e-008 1.35657e-009
387
root  -5.91725 40.8982 0.707961 175.897 -75.4572 -175.675
RightUpLeg  2.20433 -0.338039 -1.3117
RightLeg  -1.62008 -8.87477 -0.29596
RightFoot  0.744436 -0.402148 3.84466
RightToes  -3.11842e-008 1.75238e-005 3.56266e-009
Spine  2.54978 -3.80581 -5.15133
Spine1  -5.47309 -4.96181 8.83523
HEad  -14.843 10.2866 -1.88552
LeftShoulder1  2.68928 -6.3796 -20.8102
LeftArm  -33.4007 -5.3579 -38.2284
LeftForeArm  155.682 -66.7838 -155.566
LeftHand  -0.736065 -5.01368 8.50593
RightShoulder  1.83009 3.62988 19.2247
RightArm  -42.791 -5.05662 20.0403
RightForeArm  105.266 68.2907 147.918
RightHand  -0.87526 8.88856 -7.45144
LeftUpLeg  7.56023 1.91954 2.12866
LeftLeg  -4.2785 27.5599 -2.15937
LeftFoot  -1.70358 0.249736 -2.84065
LeftToes  4.78904e-008 1.4679e-008 1.35657e-009
388
root  -5.84974 40.9058 0.588429 175.218 -77.1445 -175.186
RightUpLeg  2.8472 -0.505513 -1.19869
RightLeg  -2.19982 -10.4042 0.0504825
RightFoot  0.825932 -0.368992 3.51312
RightToes  -3.11842e-008 1.75238e-005 3.56266e-009
Spine  2.64822 -3.2285 -4.70539
Spine1  -5.19837 -4.22911 7.42319
HEad  -14.8037 9.47939 -1.36932
LeftShoulder1  2.50761 -5.88177 -20.2904
LeftArm  -32.5744 -6.89507 -38.1184
LeftForeArm  155.55 -66.7524 -155.585
LeftHand  -0.747235 -5.17075 8.51086
RightShoulder  1.99782 4.09246 19.9345
RightArm  -42.5385 -3.92242 20.4877
RightForeArm  105.043 68.6379 147.324
RightHand  -1.10271 9.74918 -8.82388
LeftUpLeg  7.36682 1.91472 2.40935
LeftLeg  -3.91857 25.8701 -1.75111
LeftFoot  -1.65628 0.290667 -3.31425
LeftToes  4.78904e-008 1.4679e-008 1.35657e-009
389
root  -5.79552 40.9171 0.479322 174.338 -78.7075 -174.282
RightUpLeg  3.23148 -0.570734 -1.02017
RightLeg  -2.71031 -11.8904 0.376779
RightFoot  0.936096 -0.354794 3.35617
RightToes  -3.11842e-008 1.75238e-005 3.56266e-009
Spine  2.54996 -2.56379 -4.41815
Spine1  -5.00962 -3.48691 6.80286
HEad  -14.5267 8.26161 -1.67224
LeftShoulder1  2.56632 -5.97694 -20.6629
LeftArm  -32.0803 -7.65192 -37.8152
LeftForeArm  155.865 -66.5793 -155.812
LeftHand  -0.735209 -5.43514 8.18908
RightShoulder  2.03032 4.29576 19.6352
RightArm  -41.979 -2.77454 21.418
RightForeArm  105.094 69.0185 146.684
RightHand  -1.00872 8.99013 -8.49766
LeftUpLeg  6.94301 2.00266 2.79178
LeftLeg  -3.51977 24.1788 -1.46263
LeftFoot  -1.6528 0.32335 -3.6983
LeftToes  4.78904e-008 1.4679e-008 1.35657e-009
390
root  -5.74755 40.9237 0.385992 173.776 -80.0579 -173.663
RightUpLeg  3.4045 -0.71112 -0.959599
RightLeg  -2.95071 -13.1196 0.665612
RightFoot  0.930691 -0.341953 3.2382
RightToes  -3.11842e-008 1.75238e-005 3.56266e-009
Spine  2.41487 -2.06025 -4.17117
Spine1  -4.69318 -2.89016 6.0542
HEad  -14.3496 7.75984 -2.00887
LeftShoulder1  2.43943 -5.57602 -20.4471
LeftArm  -31.7022 -8.79455 -38.949
LeftForeArm  155.611 -66.7419 -155.605
LeftHand  -0.710943 -5.52327 7.87023
RightShoulder  2.14669 4.67548 19.8666
RightArm  -41.1697 -1.39229 22.1458
RightForeArm  106.693 69.2334 146.473
RightHand  -0.996782 8.84433 -8.48294
LeftUpLeg  6.60075 2.1003 3.06801
LeftLeg  -3.40592 22.762 -1.41541
LeftFoot  -1.50252 0.329062 -3.71807
LeftToes  4.78904e-008 1.4679e-008 1.35657e-009
391
root  -5.72571 40.9309 0.315495 173.162 -81.3729 -172.995
RightUpLeg  3.61512 -0.891779 -0.955974
RightLeg  -3.21547 -14.2683 0.978333
RightFoot  0.902461 -0.316271 3.00445
RightToes  -3.11842e-008 1.75238e-005 3.56266e-009
Spine  2.60314 -1.73207 -3.75235
Spine1  -5.08457 -2.4363 5.25593
HEad  -14.001 7.62229 -2.04435
LeftShoulder1  2.60001 -6.05261 -20.8138
LeftArm  -32.1513 -9.70095 -38.7313
LeftForeArm  153.828 -67.2591 -154.803
LeftHand  -0.694733 -5.05728 8.02061
RightShoulder  2.21897 4.94561 19.8815
RightArm  -40.1231 1.40109 22.9058
RightForeArm  108.011 69.6751 145.822
RightHand  -0.988845 9.01824 -8.31743
LeftUpLeg  6.29906 2.12997 3.2531
LeftLeg  -3.2786 21.4006 -1.31464
LeftFoot  -1.38522 0.345231 -3.86846
LeftToes  4.78904e-008 1.4679e-008 1.35657e-009
392
root  -5.71026 40.9318 0.268067 172.965 -82.1757 -172.873
RightUpLeg  3.77383 -1.08406 -1.03535
RightLeg  -3.21164 -14.8278 1.14453
RightFoot  0.801723 -0.301973 2.8898
RightToes  -3.11842e-008 1.75238e-005 3.56266e-009
Spine  2.4239 -1.3403 -3.2276
Spine1  -4.5486 -1.9547 4.43988
HEad  -15.0832 7.26345 -1.91683
LeftShoulder1  2.6424 -6.17407 -20.9182
LeftArm  -33.0553 -13.1057 -37.9838
LeftForeArm  148.256 -68.475 -152.606
LeftHand  -0.642466 -4.85935 7.56315
RightShoulder  2.23848 5.03174 19.8426
RightArm  -39.307 6.39477 23.2608
RightForeArm  108.258 70.4398 144.404
RightHand  -0.861992 8.12635 -7.76417
LeftUpLeg  6.39016 2.1276 3.30338
LeftLeg  -3.5916 20.6254 -1.40388
LeftFoot  -1.19326 0.34396 -3.79188
LeftToes  4.78904e-008 1.4679e-008 1.35657e-009
393
root  -5.71694 40.9386 0.223501 172.384 -83.1808 -172.354
RightUpLeg  4.06274 -1.24247 -1.07699
RightLeg  -3.38026 -15.5806 1.33423
RightFoot  0.77265 -0.298955 2.86336
RightToes  -3.11842e-008 1.75238e-005 3.56266e-009
Spine  2.57547 -1.30608 -2.60167
Spine1  -4.8474 -1.79651 3.55398
HEad  -16.1966 7.43708 -1.71091
LeftShoulder1  2.62643 -6.32048 -20.3068
LeftArm  -34.7929 -17.9884 -37.0758
LeftForeArm  136.325 -69.77 -149.187
LeftHand  -0.327907 -4.74361 4.00274
RightShoulder  2.31271 5.45542 19.3983
RightArm  -39.7206 12.4892 23.4943
RightForeArm  107.041 71.0722 142.969
RightHand  -0.783498 8.37789 -6.91929
LeftUpLeg  6.38502 2.11095 3.37845
LeftLeg  -3.6928 19.5687 -1.36618
LeftFoot  -0.988259 0.349033 -3.77986
LeftToes  4.78904e-008 1.4679e-008 1.35657e-009
394
root  -5.71227 40.9432 0.188777 172.901 -84.1608 -172.47
RightUpLeg  3.76954 -1.3236 -1.16863
RightLeg  -3.4957 -16.5084 1.46598
RightFoot  0.749018 -0.297602 2.82711
RightToes  -3.11842e-008 1.75238e-005 3.56266e-009
Spine  2.96645 -1.20489 -2.62901
Spine1  -6.07765 -1.67315 3.71309
HEad  -15.3275 7.32824 -1.03427
LeftShoulder1  2.64884 -6.52016 -19.9815
LeftArm  -37.7215 -23.7714 -36.1641
LeftForeArm  123.959 -70.6472 -146.039
LeftHand  0.0850001 -4.78426 -0.627504
RightShoulder  2.34136 5.79323 18.7114
RightArm  -41.4219 19.5362 23.2237
RightForeArm  106.639 71.3101 142.407
RightHand  -0.470525 7.06374 -4.75942
LeftUpLeg  5.79548 1.95326 3.30046
LeftLeg  -3.71466 18.7707 -1.32476
LeftFoot  -0.743944 0.350694 -3.73361
LeftToes  4.78904e-008 1.4679e-008 1.35657e-009
395
root  -5.72018 40.9594 0.154891 172.549 -85.1901 -171.557
RightUpLeg  3.42062 -1.24596 -1.12783
RightLeg  -3.79495 -17.6121 1.6198
RightFoot  0.950669 -0.292868 2.71699
RightToes  -3.11842e-008 1.75238e-005 3.56266e-009
Spine  3.41583 -1.18268 -1.9242
Spine1  -7.4544 -1.50741 2.81678
HEad  -16.3237 7.29048 -0.93163
LeftShoulder1  2.5897 -6.68928 -18.8814
LeftArm  -41.0773 -30.3814 -35.8276
LeftForeArm  117.858 -70.8139 -144.905
LeftHand  0.295659 -5.23847 -2.91753
RightShoulder  2.30159 5.85883 18.0589
RightArm  -43.9907 26.8807 23.3899
RightForeArm  107.309 71.0077 143.134
RightHand  -0.360397 7.67033 -3.5613
LeftUpLeg  5.22342 1.86069 3.33986
LeftLeg  -4.11504 17.8664 -1.42568
LeftFoot  -0.346524 0.33661 -3.48189
LeftToes  4.78904e-008 1.4679e-008 1.35657e-009
